HIERARCHY
ROOT Hips
{
	OFFSET 0.000000 35.082581 0.000000
	CHANNELS 6 Xposition Yposition Zposition Xrotation Yrotation Zrotation 
	JOINT Spine
	{
		OFFSET 0.000000 6.876099 0.125700
		CHANNELS 3 Xrotation Yrotation Zrotation
		JOINT Spine1
		{
			OFFSET 0.000000 5.730043 0.104720
			CHANNELS 3 Xrotation Yrotation Zrotation
			JOINT Spine1_split
			{
				OFFSET 0.000000 5.730043 0.104720
				CHANNELS 3 Xrotation Yrotation Zrotation
				JOINT Spine2
				{
					OFFSET 0.000000 5.730043 0.104720
					CHANNELS 3 Xrotation Yrotation Zrotation
					JOINT Neck
					{
						OFFSET 0.000000 10.314075 0.188496
						CHANNELS 3 Xrotation Yrotation Zrotation
						JOINT Head
						{
							OFFSET 0.000000 7.643700 -2.377400
							CHANNELS 3 Xrotation Yrotation Zrotation
							JOINT HeadTop_End
							{
								OFFSET 0.000000 43.788605 -13.619600
								CHANNELS 3 Xrotation Yrotation Zrotation
								End Site
								{
									OFFSET 0.000000 0.000000 0.000000
								}
							}
						}
					}
					JOINT LeftShoulder
					{
						OFFSET 2.196100 4.412489 0.087492
						CHANNELS 3 Xrotation Yrotation Zrotation
						JOINT LeftShoulder_split
						{
							OFFSET 2.196100 4.412489 0.087492
							CHANNELS 3 Xrotation Yrotation Zrotation
							JOINT LeftArm
							{
								OFFSET 8.771219 -2.981674 -0.026999
								CHANNELS 3 Xrotation Yrotation Zrotation
								JOINT LeftForeArm
								{
									OFFSET 8.512804 0.000000 -0.000000
									CHANNELS 3 Xrotation Yrotation Zrotation
									JOINT LeftHand
									{
										OFFSET 18.484802 0.000000 -0.000000
										CHANNELS 3 Xrotation Yrotation Zrotation
										JOINT LeftHandThumb1
										{
											OFFSET 2.499420 -1.158070 2.653252
											CHANNELS 3 Xrotation Yrotation Zrotation
											JOINT LeftHandThumb2
											{
												OFFSET 2.370079 -1.368366 1.368366
												CHANNELS 3 Xrotation Yrotation Zrotation
												JOINT LeftHandThumb3
												{
													OFFSET 2.676727 -1.545410 1.545409
													CHANNELS 3 Xrotation Yrotation Zrotation
													JOINT LeftHandThumb4
													{
														OFFSET 1.692226 -0.977005 0.977007
														CHANNELS 3 Xrotation Yrotation Zrotation
														End Site
														{
															OFFSET 0.000000 0.000000 0.000000
														}
													}
												}
											}
										}
										JOINT LeftHandIndex1
										{
											OFFSET 7.924831 -0.457527 2.345128
											CHANNELS 3 Xrotation Yrotation Zrotation
											JOINT LeftHandIndex2
											{
												OFFSET 3.643303 0.000000 0.000000
												CHANNELS 3 Xrotation Yrotation Zrotation
												JOINT LeftHandIndex3
												{
													OFFSET 3.810799 0.000000 0.000000
													CHANNELS 3 Xrotation Yrotation Zrotation
													JOINT LeftHandIndex4
													{
														OFFSET 2.403702 0.000000 0.000000
														CHANNELS 3 Xrotation Yrotation Zrotation
														End Site
														{
															OFFSET 0.000000 0.000000 0.000000
														}
													}
												}
											}
										}
										JOINT LeftHandMiddle1
										{
											OFFSET 8.563995 0.000000 -0.000000
											CHANNELS 3 Xrotation Yrotation Zrotation
											JOINT LeftHandMiddle2
											{
												OFFSET 3.861618 0.000000 0.000000
												CHANNELS 3 Xrotation Yrotation Zrotation
												JOINT LeftHandMiddle3
												{
													OFFSET 3.701603 0.000000 0.000000
													CHANNELS 3 Xrotation Yrotation Zrotation
													JOINT LeftHandMiddle4
													{
														OFFSET 2.322544 0.000000 0.000000
														CHANNELS 3 Xrotation Yrotation Zrotation
														End Site
														{
															OFFSET 0.000000 0.000000 0.000000
														}
													}
												}
											}
										}
										JOINT LeftHandRing1
										{
											OFFSET 8.426460 -0.424637 -3.286992
											CHANNELS 3 Xrotation Yrotation Zrotation
											JOINT LeftHandRing2
											{
												OFFSET 3.126408 0.000000 0.000000
												CHANNELS 3 Xrotation Yrotation Zrotation
												JOINT LeftHandRing3
												{
													OFFSET 3.085026 0.000000 0.000000
													CHANNELS 3 Xrotation Yrotation Zrotation
													JOINT LeftHandRing4
													{
														OFFSET 1.644005 0.000000 0.000000
														CHANNELS 3 Xrotation Yrotation Zrotation
														End Site
														{
															OFFSET 0.000000 0.000000 0.000000
														}
													}
												}
											}
										}
									}
								}
							}
						}
					}
					JOINT RightShoulder
					{
						OFFSET -2.196100 4.412496 0.070690
						CHANNELS 3 Xrotation Yrotation Zrotation
						JOINT RightShoulder_split
						{
							OFFSET -2.196100 4.412496 0.070690
							CHANNELS 3 Xrotation Yrotation Zrotation
							JOINT RightArm
							{
								OFFSET -8.771282 -2.981682 -0.094208
								CHANNELS 3 Xrotation Yrotation Zrotation
								JOINT RightForeArm
								{
									OFFSET -8.494598 0.000000 0.000000
									CHANNELS 3 Xrotation Yrotation Zrotation
									JOINT RightHand
									{
										OFFSET -18.483803 0.000000 0.000001
										CHANNELS 3 Xrotation Yrotation Zrotation
										JOINT RightHandThumb1
										{
											OFFSET -2.527351 -1.008072 2.575253
											CHANNELS 3 Xrotation Yrotation Zrotation
											JOINT RightHandThumb2
											{
												OFFSET -2.321518 -1.340328 1.340329
												CHANNELS 3 Xrotation Yrotation Zrotation
												JOINT RightHandThumb3
												{
													OFFSET -2.657753 -1.534454 1.534455
													CHANNELS 3 Xrotation Yrotation Zrotation
													JOINT RightHandThumb4
													{
														OFFSET -1.807510 -1.043568 1.043567
														CHANNELS 3 Xrotation Yrotation Zrotation
														End Site
														{
															OFFSET 0.000000 0.000000 0.000000
														}
													}
												}
											}
										}
										JOINT RightHandIndex1
										{
											OFFSET -8.811420 0.015533 2.887987
											CHANNELS 3 Xrotation Yrotation Zrotation
											JOINT RightHandIndex2
											{
												OFFSET -3.537502 0.000000 0.000000
												CHANNELS 3 Xrotation Yrotation Zrotation
												JOINT RightHandIndex3
												{
													OFFSET -3.356201 0.000000 0.000000
													CHANNELS 3 Xrotation Yrotation Zrotation
													JOINT RightHandIndex4
													{
														OFFSET -1.933098 0.000000 0.000000
														CHANNELS 3 Xrotation Yrotation Zrotation
														End Site
														{
															OFFSET 0.000000 0.000000 0.000000
														}
													}
												}
											}
										}
										JOINT RightHandMiddle1
										{
											OFFSET -8.178135 0.000000 0.000000
											CHANNELS 3 Xrotation Yrotation Zrotation
											JOINT RightHandMiddle2
											{
												OFFSET -3.901302 0.000000 0.000000
												CHANNELS 3 Xrotation Yrotation Zrotation
												JOINT RightHandMiddle3
												{
													OFFSET -3.909599 0.000000 0.000000
													CHANNELS 3 Xrotation Yrotation Zrotation
													JOINT RightHandMiddle4
													{
														OFFSET -2.376003 0.000000 0.000000
														CHANNELS 3 Xrotation Yrotation Zrotation
														End Site
														{
															OFFSET 0.000000 0.000000 0.000000
														}
													}
												}
											}
										}
										JOINT RightHandRing1
										{
											OFFSET -7.559013 0.014137 -2.865403
											CHANNELS 3 Xrotation Yrotation Zrotation
											JOINT RightHandRing2
											{
												OFFSET -3.449306 0.000000 0.000000
												CHANNELS 3 Xrotation Yrotation Zrotation
												JOINT RightHandRing3
												{
													OFFSET -3.362106 0.000000 0.000000
													CHANNELS 3 Xrotation Yrotation Zrotation
													JOINT RightHandRing4
													{
														OFFSET -2.076401 0.000000 0.000000
														CHANNELS 3 Xrotation Yrotation Zrotation
														End Site
														{
															OFFSET 0.000000 0.000000 0.000000
														}
													}
												}
											}
										}
									}
								}
							}
						}
					}
				}
			}
		}
	}
	JOINT LeftUpLeg
	{
		OFFSET 10.205400 -3.823500 0.155100
		CHANNELS 3 Xrotation Yrotation Zrotation
		JOINT LeftLeg
		{
			OFFSET 0.708757 -12.982077 0.567790
			CHANNELS 3 Xrotation Yrotation Zrotation
			JOINT LeftFoot
			{
				OFFSET -0.708756 -10.717838 -2.184338
				CHANNELS 3 Xrotation Yrotation Zrotation
				JOINT LeftToeBase
				{
					OFFSET 0.108149 -7.191104 7.560241
					CHANNELS 3 Xrotation Yrotation Zrotation
					JOINT LeftToe_End
					{
						OFFSET 0.070230 0.081724 4.490308
						CHANNELS 3 Xrotation Yrotation Zrotation
						End Site
						{
							OFFSET 0.000000 0.000000 0.000000
						}
					}
				}
			}
		}
	}
	JOINT RightUpLeg
	{
		OFFSET -10.205400 -3.823500 0.005500
		CHANNELS 3 Xrotation Yrotation Zrotation
		JOINT RightLeg
		{
			OFFSET -0.708756 -12.982134 0.610632
			CHANNELS 3 Xrotation Yrotation Zrotation
			JOINT RightFoot
			{
				OFFSET 0.708754 -10.717769 -1.945823
				CHANNELS 3 Xrotation Yrotation Zrotation
				JOINT RightToeBase
				{
					OFFSET -0.108140 -7.191069 7.372968
					CHANNELS 3 Xrotation Yrotation Zrotation
					JOINT RightToe_End
					{
						OFFSET -0.070227 0.081735 4.479403
						CHANNELS 3 Xrotation Yrotation Zrotation
						End Site
						{
							OFFSET 0.000000 0.000000 0.000000
						}
					}
				}
			}
		}
	}
}
MOTION
Frames: 4
Frame Time: 0.016667
-14.070977 17.658497 116.006805 189.982463 13.970701 -177.214968 16.784563 -3.598821 -9.089395 3.969192 -0.741156 -2.119501 0.000000 0.000000 0.000000 3.979507 -0.739450 -2.101520 0.912699 0.186795 0.154901 -20.090709 -2.727745 8.655177 -0.000001 -0.000000 0.000000 1.384100 -5.715076 -11.757722 0.000000 0.000000 0.000000 -18.360585 -40.146233 -47.046155 -0.000016 -56.855468 -0.000039 40.891871 -11.279986 -14.873596 -9.353692 -4.410874 -1.012470 21.377772 38.831155 0.008453 -0.454427 -2.425708 17.060581 -0.000006 0.000001 -0.000002 1.241274 5.556507 -31.143733 2.581721 4.855112 -55.983895 0.249910 1.694461 -16.778554 0.000005 -0.000000 -0.000001 2.333424 7.138678 -41.308226 3.977880 5.544120 -71.298152 0.237214 1.651756 -16.343593 0.000002 -0.000004 -0.000002 2.817944 7.449841 -47.416601 3.975422 5.543262 -71.272396 0.379542 2.076182 -20.717431 -0.000000 0.000003 0.000000 -4.126452 21.353060 -2.025791 0.000000 0.000000 0.000000 -21.913711 29.410764 24.489274 -0.000011 107.646445 -0.000014 -60.125848 14.340464 -11.279285 49.904542 33.562453 -17.441684 11.431398 -12.158972 7.800696 -6.278438 -26.632931 -3.654663 0.000004 -0.000003 -0.000000 0.249903 -3.804216 14.940624 2.023882 -3.842597 55.538720 0.811605 -2.628885 34.307518 0.000001 0.000000 -0.000001 1.128253 -5.542195 26.437084 1.145650 -3.061094 41.030288 0.800428 -2.612479 34.063461 0.000001 0.000002 0.000000 1.283875 -5.672062 29.821893 1.502263 -3.427481 47.325267 0.373388 -1.828825 23.076426 0.000001 -0.000001 0.000002 -87.970296 -2.724493 43.352495 118.391221 -10.789381 -4.593890 -15.039284 -9.950074 8.069637 -0.468326 0.000010 0.000001 0.000000 -0.000000 -0.000000 -96.562421 19.036145 -24.135862 124.955961 4.926098 2.862060 -14.376706 2.464555 -7.567913 -0.706116 -0.000007 -0.000001 0.000000 0.000000 0.000001 
-14.068524 17.659168 116.005798 189.939023 13.972281 -177.217208 16.772279 -3.584863 -9.073756 3.960993 -0.736597 -2.125366 0.000000 0.000000 0.000000 3.971169 -0.734089 -2.108097 0.911085 0.174947 0.179144 -20.499629 -2.826074 8.645568 0.000000 -0.000000 -0.000000 1.385413 -5.719496 -11.741964 0.000000 0.000000 0.000000 -18.383997 -40.127337 -47.070580 -0.000015 -56.804849 -0.000029 40.970425 -11.176348 -14.771751 -9.625166 -4.324139 -1.515807 21.379095 38.837562 0.008477 -0.454425 -2.425712 17.060569 -0.000006 0.000001 -0.000002 1.241007 5.556778 -31.144054 2.581807 4.855162 -55.984919 0.276274 1.779499 -17.648215 0.000000 -0.000000 0.000000 2.333947 7.139085 -41.314592 3.978632 5.544360 -71.305911 0.262295 1.734966 -17.192175 -0.000002 -0.000003 -0.000002 2.846246 7.466694 -47.739880 3.975199 5.543211 -71.270456 0.419598 2.179058 -21.796030 -0.000001 -0.000001 -0.000001 -4.269423 21.023292 -2.430147 0.000000 0.000000 0.000000 -22.824069 29.584302 24.643092 -0.000029 108.149495 0.000014 -60.083952 15.273705 -11.131769 49.905136 33.561302 -17.441685 11.433878 -12.159224 7.799875 -6.274800 -26.631560 -3.651580 -0.000000 0.000000 0.000003 0.250033 -3.804664 14.942277 2.024046 -3.842696 55.541042 0.811663 -2.628993 34.308990 0.000000 0.000002 0.000000 1.128568 -5.542715 26.438810 1.145716 -3.061167 41.031760 0.800491 -2.612565 34.064640 -0.000001 -0.000002 0.000000 1.283050 -5.670589 29.822447 1.502286 -3.427524 47.325940 0.373418 -1.828920 23.077678 -0.000002 -0.000002 -0.000003 -88.007288 -2.762341 43.331260 118.395606 -10.792179 -4.592265 -15.042665 -9.924036 8.047927 -0.467164 -0.000004 -0.000001 0.000000 -0.000002 0.000000 -96.592446 19.008043 -24.134366 124.950183 4.920765 2.867438 -14.373313 2.465266 -7.574221 -0.706741 0.000003 -0.000004 0.000000 0.000003 -0.000000 
-14.065706 17.660599 116.005287 189.931619 13.982470 -177.221853 16.763239 -3.572622 -9.060050 3.953009 -0.732003 -2.129827 0.000000 0.000000 0.000000 3.963044 -0.728872 -2.113284 0.909229 0.164210 0.204961 -20.937807 -2.917530 8.648819 -0.000001 -0.000000 0.000000 1.385779 -5.726418 -11.728819 0.000000 0.000000 0.000000 -18.401735 -40.104262 -47.092768 0.000009 -56.770770 0.000001 41.050571 -11.060326 -14.665970 -9.875572 -4.238481 -2.020561 21.379093 38.837583 0.008478 -0.454416 -2.425715 17.060576 -0.000006 0.000003 -0.000003 1.240738 5.557031 -31.144430 2.581906 4.855243 -55.986009 0.303766 1.863663 -18.513098 0.000000 0.000001 -0.000002 2.334221 7.139298 -41.318051 3.978885 5.544455 -71.308623 0.288381 1.817129 -18.034331 0.000001 0.000002 -0.000001 2.874025 7.483020 -48.056180 3.975049 5.543160 -71.268871 0.461144 2.280160 -22.864176 0.000001 -0.000001 -0.000001 -4.382709 20.715689 -2.732445 0.000000 0.000000 0.000000 -23.680776 29.747871 24.695007 0.000019 108.551889 -0.000046 -59.952655 16.384379 -10.966987 49.905764 33.560186 -17.441735 11.436416 -12.159722 7.799023 -6.271247 -26.630235 -3.648550 -0.000000 -0.000000 -0.000000 0.250171 -3.805101 14.943873 2.024198 -3.842790 55.543310 0.811709 -2.629084 34.310448 0.000002 -0.000000 -0.000001 1.128876 -5.543226 26.440513 1.145806 -3.061262 41.033345 0.800527 -2.612638 34.065828 -0.000002 0.000000 0.000000 1.282226 -5.669147 29.823461 1.502388 -3.427575 47.327023 0.373463 -1.829018 23.079097 -0.000001 -0.000003 -0.000002 -88.004317 -2.779781 43.308928 118.396958 -10.793113 -4.588365 -15.047443 -9.905015 8.062589 -0.465213 0.000003 -0.000000 0.000000 -0.000002 0.000000 -96.602364 18.975838 -24.127671 124.944541 4.918576 2.871983 -14.386818 2.466663 -7.593977 -0.707335 -0.000005 -0.000002 0.000001 -0.000000 0.000000 
-14.062788 17.660908 116.002365 189.920909 13.994821 -177.224107 16.754604 -3.564960 -9.045932 3.944887 -0.728165 -2.131930 0.000000 0.000000 0.000000 3.954812 -0.724026 -2.115639 0.906908 0.156212 0.232184 -21.411173 -2.995302 8.669107 -0.000001 0.000001 0.000000 1.385075 -5.737303 -11.717998 0.000000 0.000000 0.000000 -18.413649 -40.072375 -47.113084 0.000006 -56.750860 0.000011 41.115321 -10.949202 -14.571614 -10.109464 -4.152947 -2.519852 21.379091 38.837555 0.008459 -0.454431 -2.425696 17.060578 -0.000004 0.000004 -0.000000 1.240486 5.557304 -31.144956 2.582014 4.855308 -55.987211 0.332075 1.946138 -19.364840 -0.000001 0.000001 -0.000001 2.334405 7.139420 -41.320186 3.979022 5.544497 -71.309962 0.315236 1.897570 -18.862682 0.000001 -0.000000 -0.000001 2.901206 7.498787 -48.364607 3.974912 5.543110 -71.267539 0.503788 2.378668 -23.913479 -0.000000 -0.000003 0.000001 -4.490350 20.422744 -2.985040 0.000000 0.000000 0.000000 -24.488612 29.920911 24.697430 -0.000029 108.890366 0.000005 -59.803142 17.545369 -10.769456 49.906406 33.559086 -17.441814 11.438882 -12.160195 7.798181 -6.267734 -26.628963 -3.645583 0.000003 -0.000000 0.000001 0.250307 -3.805533 14.945470 2.024346 -3.842902 55.545574 0.811792 -2.629184 34.311910 -0.000000 0.000002 -0.000002 1.129153 -5.543734 26.442092 1.145932 -3.061398 41.035339 0.800590 -2.612704 34.067071 0.000001 0.000003 0.000001 1.281508 -5.667786 29.825510 1.502491 -3.427672 47.328935 0.373501 -1.829147 23.080584 0.000002 0.000001 0.000004 -87.981866 -2.816919 43.310028 118.398980 -10.819421 -4.590143 -15.058421 -9.876410 8.019525 -0.463042 -0.000011 -0.000002 -0.000000 -0.000001 0.000000 -96.619637 18.952945 -24.124594 124.932848 4.923497 2.878519 -14.376341 2.468797 -7.613945 -0.707906 -0.000001 0.000001 -0.000000 0.000003 0.000001 
